<?xml version="1.0" encoding="UTF-8"?>
<svg version="1.1" xmlns="http://www.w3.org/2000/svg" width="555" height="700">
<path d="M0 0 C3.81335459 3.69003715 5.81738704 6.90287554 6.13142776 12.22902107 C6.13440243 13.04564657 6.13737709 13.86227207 6.14044189 14.7036438 C6.14615204 15.64549026 6.15186218 16.58733673 6.15774536 17.557724 C6.15886322 18.5842659 6.15998108 19.6108078 6.16113281 20.66845703 C6.16609772 21.75513168 6.17106262 22.84180634 6.17617798 23.96141052 C6.19079445 27.56021761 6.19760168 31.15898059 6.203125 34.7578125 C6.20887799 37.26162721 6.21463571 39.76544191 6.22039795 42.26925659 C6.22956418 46.851805 6.2358643 51.43434079 6.2388947 56.01689732 C6.24292274 62.07350867 6.2551668 68.1299646 6.28125 74.18652344 C6.30884273 80.69451272 6.32164642 87.20236874 6.32357025 93.71041489 C6.32658953 96.18622827 6.33459348 98.66204095 6.34775543 101.1378212 C6.3648951 104.61042783 6.36291581 108.08254349 6.35644531 111.55517578 C6.3656601 112.5695723 6.37487488 113.58396881 6.3843689 114.62910461 C6.33371918 123.34877893 4.93981986 132.25750178 -1 139 C-7.29921479 143.53240572 -13.589278 143.55132862 -21.10742188 143.45410156 C-22.2985257 143.45468567 -23.48962952 143.45526978 -24.71682739 143.45587158 C-27.96033276 143.4535735 -31.2031346 143.43360828 -34.44650078 143.40557575 C-37.84438861 143.38045472 -41.24229242 143.37821172 -44.64025879 143.37347412 C-51.0645805 143.36107556 -57.48862771 143.32829676 -63.91282892 143.28807616 C-71.94964563 143.23885888 -79.98650755 143.21705803 -88.0234375 143.1953125 C-102.34917178 143.156431 -116.6743077 143.07629067 -131 143 C-131 178.64 -131 214.28 -131 251 C-118.07199219 250.93039062 -118.07199219 250.93039062 -104.8828125 250.859375 C-98.71821036 250.83632912 -92.55364071 250.81582571 -86.38902283 250.79898453 C-78.40964193 250.77684795 -70.4304289 250.74877627 -62.45117188 250.69824219 C-56.13207083 250.65824142 -49.81309667 250.63253584 -43.49387252 250.62364602 C-40.15101349 250.61845336 -36.80880334 250.60420922 -33.46600723 250.57707977 C-29.7246803 250.54793082 -25.98409848 250.54404899 -22.24267578 250.54589844 C-21.14718918 250.53151733 -20.05170258 250.51713623 -18.92301941 250.50231934 C-10.36507923 250.5479236 -3.85806322 252.57084908 3.375 257.125 C9.59844287 263.94115172 10.58812468 271.95347844 10.45410156 280.86572266 C10.4545837 281.91761969 10.45506584 282.96951672 10.45556259 284.05328941 C10.45260126 287.4239037 10.42225357 290.79360863 10.390625 294.1640625 C10.38473633 296.25870336 10.38066026 298.35335011 10.37841797 300.44799805 C10.35753373 308.17375573 10.30168858 315.89938701 10.25 323.625 C10.1675 340.90875 10.085 358.1925 10 376 C45.31 376 80.62 376 117 376 C116.84182696 341.23644734 116.84182696 341.23644734 116.63964844 306.47314453 C116.62158203 299.72631836 116.62158203 299.72631836 116.6182251 296.5607605 C116.61211117 294.36533357 116.59810197 292.16991948 116.57769775 289.97457886 C116.54823209 286.6353243 116.54438212 283.29688546 116.54589844 279.95751953 C116.531506 278.99108583 116.51711357 278.02465214 116.502285 277.02893257 C116.545894 269.80926202 117.77526698 262.59177212 122.75017929 257.05061531 C127.41983987 252.75928696 131.95033942 250.74663385 138.34675598 250.75949097 C139.40539856 250.75674164 140.46404114 250.75399231 141.55476379 250.75115967 C142.70562973 250.75835022 143.85649567 250.76554077 145.04223633 250.77294922 C146.87212601 250.77251114 146.87212601 250.77251114 148.73898315 250.77206421 C152.07545512 250.77321718 155.41167829 250.78323397 158.74810624 250.79721212 C162.23812515 250.80973139 165.72814753 250.81089092 169.21818542 250.81326294 C175.82312866 250.8194742 182.42800554 250.83588021 189.03291959 250.85596192 C196.55404391 250.87833195 204.07517143 250.88931712 211.59632075 250.89935279 C227.06425224 250.92024676 242.53211755 250.95541583 258 251 C258.01656601 254.97876462 258.02853832 258.95751554 258.03647804 262.93630695 C258.04141143 264.94597136 258.04985463 266.95562618 258.05836487 268.96527863 C258.07292143 277.68388586 257.76644678 286.06948547 256.375 294.6875 C256.10985596 296.45565063 256.10985596 296.45565063 255.83935547 298.25952148 C247.71403027 350.01611423 228.36294266 402.10520065 195 443 C194.22011719 443.98355469 193.44023437 444.96710938 192.63671875 445.98046875 C180.1929699 461.24970334 166.02312012 475.50768933 150 487 C148.40671875 488.15822266 148.40671875 488.15822266 146.78125 489.33984375 C103.27032515 520.23048821 49.41831075 536.97706846 -3.9375 537.203125 C-5.04783096 537.21018463 -6.15816193 537.21724426 -7.30213928 537.22451782 C-53.6928742 537.45257568 -53.6928742 537.45257568 -73 534 C-74.1446875 533.80132324 -75.289375 533.60264648 -76.46875 533.39794922 C-127.76901976 524.25186747 -174.28597078 503.26812395 -212 467 C-212.54043945 466.48147461 -213.08087891 465.96294922 -213.63769531 465.42871094 C-220.96430888 458.35723191 -227.80908137 451.10285447 -234 443 C-234.51675293 442.33258789 -235.03350586 441.66517578 -235.56591797 440.97753906 C-243.89406375 430.17589834 -251.25952904 419.12686299 -257.81103516 407.16357422 C-258.88895434 405.20207119 -259.9919139 403.25781171 -261.10546875 401.31640625 C-280.62071601 366.75945868 -290.75123727 327.06105706 -296 288 C-296.1038501 287.24960449 -296.2077002 286.49920898 -296.31469727 285.72607422 C-299.28746394 260.90039533 -297.91189632 234.42774493 -293 210 C-292.79101074 208.95424805 -292.58202148 207.90849609 -292.36669922 206.83105469 C-287.44055441 183.01581981 -279.76997001 159.81016995 -269 138 C-268.57992676 137.14212891 -268.15985352 136.28425781 -267.72705078 135.40039062 C-251.64363507 102.83997172 -228.78204731 72.40397792 -200 50 C-199.02933594 49.21238281 -198.05867188 48.42476562 -197.05859375 47.61328125 C-160.23389931 18.25492035 -44.94343584 -36.45412018 0 0 Z " fill="#3F95DC" transform="translate(297,163)"/>
<path d="M0 0 C1.11059784 -0.00281982 2.22119568 -0.00563965 3.365448 -0.00854492 C5.20914474 -0.00550858 5.20914474 -0.00550858 7.09008789 -0.00241089 C8.37609894 -0.00416321 9.66210999 -0.00591553 10.98709106 -0.00772095 C14.52418578 -0.01229489 18.06125146 -0.01050589 21.59834671 -0.00734186 C25.2921278 -0.00481806 28.98590632 -0.00715586 32.6796875 -0.00872803 C38.88387501 -0.01054966 45.08805063 -0.00814357 51.29223633 -0.00338745 C58.47507778 0.00205516 65.65789086 0.0002925 72.84073162 -0.00521386 C78.99698219 -0.00974516 85.1532242 -0.01039545 91.3094759 -0.00777519 C94.99106118 -0.00621251 98.6726331 -0.0060184 102.35421753 -0.00931168 C106.45629571 -0.01272448 110.55832461 -0.00800038 114.66040039 -0.00241089 C115.88953156 -0.00443512 117.11866272 -0.00645935 118.38504028 -0.00854492 C120.05093704 -0.00431519 120.05093704 -0.00431519 121.75048828 0 C123.20727745 0.00056554 123.20727745 0.00056554 124.6934967 0.0011425 C126.87524414 0.12698364 126.87524414 0.12698364 127.87524414 1.12698364 C127.97361455 2.82025421 128.00156429 4.51765019 128.00222778 6.21377563 C128.00504761 7.31595932 128.00786743 8.41814301 128.01077271 9.5537262 C128.00773636 11.38339684 128.00773636 11.38339684 128.00463867 13.25003052 C128.00726715 15.16441673 128.00726715 15.16441673 128.00994873 17.11747742 C128.01452263 20.62771356 128.01273369 24.13792044 128.00956964 27.64815712 C128.00704582 31.313911 128.00938364 34.97966229 128.01095581 38.64541626 C128.01277744 44.80252535 128.01037137 50.95962246 128.00561523 57.11672974 C128.00017262 64.24503969 128.00193529 71.37332105 128.00744164 78.50163031 C128.01197296 84.61117215 128.01262323 90.72070537 128.01000297 96.83024836 C128.0084403 100.48388799 128.00824616 104.13751417 128.01153946 107.79115295 C128.01495229 111.86209825 128.01022813 115.93299389 128.00463867 120.00393677 C128.0066629 121.22371719 128.00868713 122.44349762 128.01077271 123.70024109 C128.00795288 124.80242477 128.00513306 125.90460846 128.00222778 127.04019165 C128.00166224 128.4859193 128.00166224 128.4859193 128.00108528 129.96085358 C127.87524414 132.12698364 127.87524414 132.12698364 126.87524414 133.12698364 C125.16930323 133.22538071 123.45926444 133.25330392 121.75048828 133.25396729 C120.63989044 133.25678711 119.5292926 133.25960693 118.38504028 133.26251221 C117.15590912 133.26048798 115.92677795 133.25846375 114.66040039 133.25637817 C113.37438934 133.25813049 112.0883783 133.25988281 110.76339722 133.26168823 C107.2263025 133.26626217 103.68923682 133.26447317 100.15214157 133.26130915 C96.45836048 133.25878534 92.76458196 133.26112314 89.07080078 133.26269531 C82.86661328 133.26451695 76.66243766 133.26211086 70.45825195 133.25735474 C63.2754105 133.25191213 56.09259743 133.25367479 48.90975666 133.25918114 C42.75350609 133.26371244 36.59726408 133.26436274 30.44101238 133.26174247 C26.7594271 133.26017979 23.07785518 133.25998569 19.39627075 133.26327896 C15.29419257 133.26669176 11.19216367 133.26196766 7.09008789 133.25637817 C5.24639114 133.25941452 5.24639114 133.25941452 3.365448 133.26251221 C1.69955124 133.25828247 1.69955124 133.25828247 0 133.25396729 C-0.97119278 133.25359026 -1.94238556 133.25321323 -2.94300842 133.25282478 C-5.12475586 133.12698364 -5.12475586 133.12698364 -6.12475586 132.12698364 C-6.22312627 130.43371307 -6.25107601 128.73631709 -6.2517395 127.04019165 C-6.25455933 125.93800797 -6.25737915 124.83582428 -6.26028442 123.70024109 C-6.25724808 121.87057045 -6.25724808 121.87057045 -6.25415039 120.00393677 C-6.25590271 118.72767929 -6.25765503 117.45142181 -6.25946045 116.13648987 C-6.26403435 112.62625373 -6.2622454 109.11604685 -6.25908136 105.60581017 C-6.25655754 101.94005629 -6.25889536 98.27430499 -6.26046753 94.60855103 C-6.26228916 88.45144194 -6.25988309 82.29434482 -6.25512695 76.13723755 C-6.24968434 69.0089276 -6.251447 61.88064624 -6.25695336 54.75233698 C-6.26148468 48.64279513 -6.26213495 42.53326191 -6.25951469 36.42371893 C-6.25795202 32.77007929 -6.25775788 29.11645312 -6.26105118 25.46281433 C-6.26446401 21.39186903 -6.25973985 17.32097339 -6.25415039 13.25003052 C-6.25617462 12.03025009 -6.25819885 10.81046967 -6.26028442 9.5537262 C-6.2574646 8.45154251 -6.25464478 7.34935883 -6.2517395 6.21377563 C-6.25136248 5.2499572 -6.25098545 4.28613876 -6.250597 3.29311371 C-6.00814213 -0.88031297 -3.62551787 0.00140746 0 0 Z " fill="#3E95DC" transform="translate(295.124755859375,-0.126983642578125)"/>
</svg>
