<svg xmlns="http://www.w3.org/2000/svg" xmlns:xlink="http://www.w3.org/1999/xlink" width="50" zoomAndPan="magnify" viewBox="0 0 37.5 37.499999" height="50" preserveAspectRatio="xMidYMid meet" version="1.0"><defs><clipPath id="4055ec3e0d"><path d="M 0.839844 3 L 36.367188 3 L 36.367188 34 L 0.839844 34 Z M 0.839844 3 " clip-rule="nonzero"/></clipPath></defs><g clip-path="url(#4055ec3e0d)"><path fill="#000000" d="M 36.367188 23.0625 L 36.367188 28.980469 C 36.367188 29.304688 36.332031 29.625 36.269531 29.941406 C 36.207031 30.257812 36.109375 30.566406 35.984375 30.863281 C 35.863281 31.164062 35.707031 31.449219 35.527344 31.714844 C 35.347656 31.984375 35.140625 32.234375 34.910156 32.460938 C 34.679688 32.691406 34.429688 32.894531 34.15625 33.074219 C 33.886719 33.253906 33.601562 33.40625 33.300781 33.53125 C 33 33.65625 32.6875 33.75 32.371094 33.8125 C 32.050781 33.875 31.726562 33.90625 31.402344 33.90625 L 5.804688 33.90625 C 5.476562 33.90625 5.15625 33.875 4.835938 33.8125 C 4.515625 33.75 4.207031 33.65625 3.90625 33.53125 C 3.601562 33.40625 3.316406 33.253906 3.046875 33.074219 C 2.777344 32.894531 2.523438 32.691406 2.292969 32.460938 C 2.0625 32.234375 1.859375 31.984375 1.675781 31.714844 C 1.496094 31.449219 1.34375 31.164062 1.21875 30.863281 C 1.09375 30.566406 1 30.257812 0.9375 29.941406 C 0.871094 29.625 0.839844 29.304688 0.839844 28.980469 L 0.839844 23.0625 C 0.839844 22.863281 0.878906 22.667969 0.957031 22.480469 C 1.035156 22.296875 1.144531 22.132812 1.289062 21.988281 C 1.429688 21.847656 1.597656 21.738281 1.785156 21.660156 C 1.972656 21.582031 2.167969 21.542969 2.371094 21.542969 C 2.574219 21.542969 2.769531 21.582031 2.957031 21.660156 C 3.144531 21.738281 3.308594 21.847656 3.453125 21.988281 C 3.597656 22.132812 3.707031 22.296875 3.785156 22.480469 C 3.863281 22.667969 3.902344 22.863281 3.902344 23.0625 L 3.902344 28.714844 C 3.902344 29 3.957031 29.273438 4.066406 29.539062 C 4.179688 29.800781 4.335938 30.035156 4.539062 30.234375 C 4.742188 30.4375 4.976562 30.59375 5.242188 30.703125 C 5.507812 30.8125 5.785156 30.867188 6.070312 30.867188 L 31.132812 30.867188 C 31.421875 30.867188 31.699219 30.8125 31.964844 30.703125 C 32.230469 30.59375 32.464844 30.4375 32.667969 30.234375 C 32.871094 30.035156 33.027344 29.800781 33.136719 29.539062 C 33.246094 29.273438 33.300781 29 33.304688 28.714844 L 33.304688 23.0625 C 33.304688 22.863281 33.34375 22.667969 33.417969 22.484375 C 33.496094 22.296875 33.609375 22.132812 33.75 21.988281 C 33.894531 21.847656 34.0625 21.738281 34.25 21.660156 C 34.4375 21.582031 34.632812 21.542969 34.835938 21.542969 C 35.039062 21.542969 35.234375 21.582031 35.421875 21.660156 C 35.609375 21.738281 35.773438 21.847656 35.917969 21.988281 C 36.0625 22.132812 36.171875 22.296875 36.25 22.484375 C 36.328125 22.667969 36.367188 22.863281 36.367188 23.0625 Z M 13.671875 12.246094 L 16.585938 9.351562 C 16.683594 9.257812 16.792969 9.234375 16.921875 9.285156 C 17.046875 9.339844 17.109375 9.433594 17.109375 9.566406 L 17.109375 23.878906 C 17.109375 24.082031 17.148438 24.273438 17.226562 24.460938 C 17.304688 24.648438 17.414062 24.8125 17.558594 24.953125 C 17.703125 25.097656 17.867188 25.207031 18.054688 25.285156 C 18.242188 25.359375 18.4375 25.398438 18.640625 25.398438 C 18.84375 25.398438 19.039062 25.359375 19.226562 25.285156 C 19.414062 25.207031 19.578125 25.097656 19.722656 24.953125 C 19.867188 24.8125 19.976562 24.648438 20.054688 24.460938 C 20.132812 24.273438 20.171875 24.082031 20.171875 23.878906 L 20.171875 9.644531 C 20.171875 9.507812 20.234375 9.414062 20.359375 9.363281 C 20.488281 9.3125 20.597656 9.332031 20.695312 9.429688 L 23.53125 12.246094 C 23.679688 12.382812 23.84375 12.488281 24.03125 12.5625 C 24.21875 12.640625 24.414062 12.675781 24.613281 12.675781 C 24.816406 12.675781 25.011719 12.640625 25.199219 12.5625 C 25.386719 12.488281 25.550781 12.382812 25.699219 12.246094 C 25.839844 12.101562 25.953125 11.9375 26.027344 11.75 C 26.105469 11.566406 26.144531 11.371094 26.144531 11.171875 C 26.144531 10.96875 26.105469 10.773438 26.027344 10.589844 C 25.953125 10.402344 25.839844 10.238281 25.699219 10.09375 L 18.601562 3.050781 L 11.507812 10.09375 C 11.363281 10.238281 11.253906 10.402344 11.175781 10.589844 C 11.097656 10.773438 11.058594 10.96875 11.058594 11.171875 C 11.058594 11.371094 11.097656 11.566406 11.175781 11.75 C 11.253906 11.9375 11.363281 12.101562 11.507812 12.246094 C 11.652344 12.382812 11.820312 12.488281 12.007812 12.5625 C 12.195312 12.640625 12.386719 12.675781 12.589844 12.675781 C 12.792969 12.675781 12.984375 12.640625 13.171875 12.5625 C 13.359375 12.488281 13.527344 12.382812 13.671875 12.246094 Z M 13.671875 12.246094 " fill-opacity="1" fill-rule="nonzero"/><path fill="#ffffff" d="M 36.15625 23.09375 L 36.15625 29.019531 C 36.15625 29.34375 36.125 29.664062 36.0625 29.980469 C 36 30.296875 35.90625 30.605469 35.78125 30.90625 C 35.65625 31.207031 35.503906 31.488281 35.324219 31.757812 C 35.144531 32.027344 34.941406 32.277344 34.710938 32.507812 C 34.480469 32.734375 34.230469 32.941406 33.964844 33.121094 C 33.695312 33.300781 33.410156 33.453125 33.109375 33.578125 C 32.8125 33.699219 32.503906 33.792969 32.183594 33.859375 C 31.867188 33.921875 31.546875 33.953125 31.222656 33.953125 L 5.773438 33.953125 C 5.449219 33.953125 5.128906 33.921875 4.8125 33.859375 C 4.492188 33.792969 4.1875 33.699219 3.886719 33.578125 C 3.585938 33.453125 3.304688 33.300781 3.035156 33.121094 C 2.765625 32.941406 2.515625 32.734375 2.285156 32.507812 C 2.058594 32.277344 1.851562 32.027344 1.671875 31.757812 C 1.492188 31.488281 1.339844 31.207031 1.214844 30.90625 C 1.09375 30.605469 1 30.296875 0.933594 29.980469 C 0.871094 29.664062 0.839844 29.34375 0.839844 29.019531 L 0.839844 23.09375 C 0.839844 22.890625 0.878906 22.699219 0.953125 22.511719 C 1.03125 22.324219 1.140625 22.160156 1.285156 22.015625 C 1.429688 21.875 1.59375 21.765625 1.777344 21.6875 C 1.964844 21.609375 2.160156 21.570312 2.363281 21.570312 C 2.5625 21.570312 2.757812 21.609375 2.945312 21.6875 C 3.132812 21.765625 3.296875 21.875 3.4375 22.015625 C 3.582031 22.160156 3.691406 22.324219 3.769531 22.511719 C 3.84375 22.699219 3.882812 22.890625 3.882812 23.09375 L 3.882812 28.753906 C 3.882812 29.039062 3.9375 29.3125 4.050781 29.578125 C 4.160156 29.839844 4.3125 30.074219 4.515625 30.277344 C 4.71875 30.476562 4.953125 30.632812 5.214844 30.742188 C 5.480469 30.851562 5.753906 30.910156 6.039062 30.910156 L 30.957031 30.910156 C 31.242188 30.910156 31.515625 30.851562 31.78125 30.742188 C 32.046875 30.632812 32.277344 30.476562 32.480469 30.277344 C 32.683594 30.074219 32.839844 29.839844 32.949219 29.578125 C 33.058594 29.3125 33.113281 29.039062 33.113281 28.753906 L 33.113281 23.09375 C 33.113281 22.890625 33.152344 22.699219 33.230469 22.511719 C 33.304688 22.324219 33.414062 22.160156 33.558594 22.019531 C 33.703125 21.875 33.867188 21.765625 34.050781 21.6875 C 34.238281 21.609375 34.433594 21.570312 34.636719 21.570312 C 34.835938 21.570312 35.03125 21.609375 35.21875 21.6875 C 35.402344 21.765625 35.570312 21.875 35.710938 22.019531 C 35.855469 22.160156 35.964844 22.324219 36.042969 22.511719 C 36.117188 22.699219 36.15625 22.890625 36.15625 23.09375 Z M 13.597656 12.257812 L 16.496094 9.363281 C 16.589844 9.265625 16.699219 9.242188 16.824219 9.296875 C 16.953125 9.347656 17.015625 9.441406 17.015625 9.578125 L 17.015625 23.910156 C 17.015625 24.113281 17.050781 24.308594 17.128906 24.492188 C 17.207031 24.679688 17.316406 24.84375 17.460938 24.988281 C 17.601562 25.128906 17.765625 25.238281 17.953125 25.316406 C 18.140625 25.394531 18.335938 25.433594 18.535156 25.433594 C 18.738281 25.433594 18.933594 25.394531 19.117188 25.316406 C 19.304688 25.238281 19.46875 25.128906 19.613281 24.988281 C 19.753906 24.84375 19.867188 24.679688 19.941406 24.492188 C 20.019531 24.308594 20.058594 24.113281 20.058594 23.910156 L 20.058594 9.652344 C 20.058594 9.515625 20.121094 9.421875 20.246094 9.371094 C 20.371094 9.320312 20.480469 9.34375 20.578125 9.4375 L 23.398438 12.257812 C 23.542969 12.398438 23.710938 12.503906 23.894531 12.578125 C 24.082031 12.652344 24.277344 12.691406 24.476562 12.691406 C 24.675781 12.691406 24.871094 12.652344 25.054688 12.578125 C 25.242188 12.503906 25.40625 12.398438 25.550781 12.257812 C 25.695312 12.117188 25.804688 11.953125 25.882812 11.765625 C 25.957031 11.578125 25.996094 11.382812 25.996094 11.183594 C 25.996094 10.980469 25.957031 10.785156 25.882812 10.601562 C 25.804688 10.414062 25.695312 10.25 25.550781 10.105469 L 18.5 3.050781 L 11.445312 10.105469 C 11.300781 10.25 11.191406 10.414062 11.117188 10.601562 C 11.039062 10.785156 11 10.980469 11 11.183594 C 11 11.382812 11.039062 11.578125 11.117188 11.765625 C 11.191406 11.953125 11.300781 12.117188 11.445312 12.257812 C 11.589844 12.398438 11.753906 12.503906 11.941406 12.578125 C 12.128906 12.652344 12.320312 12.691406 12.519531 12.691406 C 12.722656 12.691406 12.914062 12.652344 13.101562 12.578125 C 13.285156 12.503906 13.453125 12.398438 13.597656 12.257812 Z M 13.597656 12.257812 " fill-opacity="1" fill-rule="nonzero"/></g></svg>