<?xml version="1.0" standalone="no"?>
<!DOCTYPE svg PUBLIC "-//W3C//DTD SVG 20010904//EN"
 "http://www.w3.org/TR/2001/REC-SVG-20010904/DTD/svg10.dtd">
<svg version="1.0" xmlns="http://www.w3.org/2000/svg"
 width="2048.000000pt" height="2048.000000pt" viewBox="0 0 2048.000000 2048.000000"
 preserveAspectRatio="xMidYMid meet">

<g transform="translate(0.000000,2048.000000) scale(0.100000,-0.100000)"
fill="#000000" stroke="none">
<path d="M10100 20464 c-99 -19 -206 -52 -265 -81 -176 -88 -220 -129 -746
-698 -395 -427 -692 -747 -919 -990 -102 -110 -303 -326 -445 -480 -142 -154
-340 -368 -439 -475 -474 -510 -745 -801 -805 -865 -36 -39 -235 -253 -441
-475 -206 -222 -448 -482 -538 -578 -89 -96 -175 -193 -191 -216 -97 -140
-144 -254 -172 -415 -23 -132 -21 -220 11 -361 77 -348 332 -615 680 -716 144
-41 316 -45 465 -10 66 16 146 44 200 70 167 82 209 121 735 691 102 110 255
274 340 365 85 91 205 220 266 285 108 118 211 228 842 908 173 186 346 372
385 415 97 106 208 222 213 222 2 0 4 -2198 4 -4884 0 -4839 0 -4886 20 -4988
32 -164 79 -272 178 -403 72 -97 125 -148 216 -210 196 -132 421 -190 643
-165 380 42 695 295 812 650 54 167 51 -165 51 5121 0 2684 2 4879 4 4879 5 0
117 -116 216 -225 40 -44 186 -201 325 -350 138 -148 280 -302 316 -340 77
-85 644 -696 854 -920 83 -88 229 -246 325 -350 519 -563 569 -610 736 -696
262 -133 578 -132 851 3 46 23 119 70 163 105 219 176 343 415 365 708 13 160
-44 381 -136 533 -59 98 -71 111 -293 350 -340 364 -885 951 -1001 1077 -60
66 -175 190 -255 275 -80 85 -224 241 -320 345 -96 104 -243 262 -325 350 -83
88 -233 250 -335 360 -101 110 -248 268 -325 350 -77 83 -224 240 -325 350
-102 110 -250 270 -330 355 -80 85 -281 301 -447 480 -423 456 -447 478 -618
560 -126 61 -217 81 -380 85 -77 2 -151 1 -165 -1z"/>
<path d="M775 7660 c-366 -76 -642 -342 -741 -715 -18 -66 -19 -132 -19 -1280
0 -1096 2 -1225 18 -1365 71 -622 220 -1122 501 -1680 365 -726 967 -1393
1666 -1845 244 -157 610 -345 840 -431 36 -14 97 -36 135 -51 314 -117 703
-208 1090 -256 l180 -22 5785 0 c5503 0 5793 1 5950 18 378 41 748 125 1070
241 268 97 366 138 593 252 871 437 1606 1157 2069 2029 288 542 469 1130 535
1745 16 149 18 281 18 1370 0 1340 5 1244 -68 1420 -167 409 -610 652 -1046
575 -377 -66 -670 -341 -772 -725 -9 -33 -14 -347 -19 -1185 -7 -1165 -10
-1259 -49 -1460 -136 -704 -465 -1259 -1026 -1731 -118 -99 -352 -252 -501
-327 -202 -102 -488 -201 -714 -248 -334 -69 173 -64 -6020 -64 -5749 0 -5638
-1 -5900 36 -114 16 -301 63 -451 112 -534 177 -951 464 -1335 922 -253 301
-475 756 -564 1155 -73 328 -72 314 -80 1600 -7 1215 -5 1166 -57 1305 -166
443 -629 700 -1088 605z"/>
</g>
</svg>
